<?xml version="1.0" encoding="UTF-8" standalone="no"?>
<!-- Created with Inkscape (http://www.inkscape.org/) -->

<svg
   xmlns:dc="http://purl.org/dc/elements/1.1/"
   xmlns:cc="http://creativecommons.org/ns#"
   xmlns:rdf="http://www.w3.org/1999/02/22-rdf-syntax-ns#"
   xmlns:svg="http://www.w3.org/2000/svg"
   xmlns="http://www.w3.org/2000/svg"
   xmlns:sodipodi="http://sodipodi.sourceforge.net/DTD/sodipodi-0.dtd"
   xmlns:inkscape="http://www.inkscape.org/namespaces/inkscape"
   width="210mm"
   height="297mm"
   viewBox="0 0 744.09448819 1052.3622047"
   id="svg2"
   version="1.1"
   inkscape:version="0.91 r13725"
   sodipodi:docname="si-drawing.svg">
  <defs
     id="defs4" />
  <sodipodi:namedview
     id="base"
     pagecolor="#ffffff"
     bordercolor="#666666"
     borderopacity="1.0"
     inkscape:pageopacity="0.0"
     inkscape:pageshadow="2"
     inkscape:zoom="0.7"
     inkscape:cx="-129.51588"
     inkscape:cy="471.32153"
     inkscape:document-units="px"
     inkscape:current-layer="layer1"
     showgrid="false"
     inkscape:window-width="1863"
     inkscape:window-height="1056"
     inkscape:window-x="57"
     inkscape:window-y="24"
     inkscape:window-maximized="1" />
  <metadata
     id="metadata7">
    <rdf:RDF>
      <cc:Work
         rdf:about="">
        <dc:format>image/svg+xml</dc:format>
        <dc:type
           rdf:resource="http://purl.org/dc/dcmitype/StillImage" />
      </cc:Work>
    </rdf:RDF>
  </metadata>
  <g
     inkscape:label="Layer 1"
     inkscape:groupmode="layer"
     id="layer1"
     style="display:inline;opacity:1">
    <path
       inkscape:connector-curvature="0"
       id="path4187"
       d="M -206.74468,382.74528 C -206.74468,382.74528 -204.21372,395.85308 -204.21929,403.06364 -204.22483,410.24117 -206.74468,423.65544 -206.74468,423.65544 L -200.55718,423.65544 -192.89507,423.65544 -186.70952,423.65544 C -186.70952,423.65544 -189.22937,410.24117 -189.23491,403.06364 -189.24048,395.85308 -186.70952,382.74528 -186.70952,382.74528 L -192.89507,382.74528 -200.55718,382.74528 -206.74468,382.74528 Z"
       style="opacity:1;fill:#717cb6;fill-opacity:1;stroke:none;stroke-width:3;stroke-linecap:round;stroke-linejoin:round;stroke-miterlimit:4;stroke-dasharray:none;stroke-dashoffset:2.5;stroke-opacity:1" />
    <path
       style="opacity:1;fill:#e77d1f;fill-opacity:1;stroke:none;stroke-width:3;stroke-linecap:round;stroke-linejoin:round;stroke-miterlimit:4;stroke-dasharray:none;stroke-dashoffset:2.5;stroke-opacity:1"
       d="M -206.74468,456.19416 C -206.74468,456.19416 -204.21372,469.30196 -204.21929,476.51252 -204.22483,483.69005 -206.74468,497.10432 -206.74468,497.10432 L -200.55718,497.10432 -192.89507,497.10432 -186.70952,497.10432 C -186.70952,497.10432 -189.22937,483.69005 -189.23491,476.51252 -189.24048,469.30196 -186.70952,456.19416 -186.70952,456.19416 L -192.89507,456.19416 -200.55718,456.19416 -206.74468,456.19416 Z"
       id="rect4163"
       inkscape:connector-curvature="0" />
    <g
       id="g4158">
      <circle
         r="21.213203"
         cy="439.57803"
         cx="-197.48471"
         id="path4147"
         style="opacity:1;fill:#e77d1f;fill-opacity:1;stroke:none;stroke-width:3;stroke-linecap:round;stroke-linejoin:round;stroke-miterlimit:4;stroke-dasharray:none;stroke-dashoffset:2.5;stroke-opacity:1" />
      <circle
         style="opacity:1;fill:#ffffff;fill-opacity:1;stroke:none;stroke-width:3;stroke-linecap:round;stroke-linejoin:round;stroke-miterlimit:4;stroke-dasharray:none;stroke-dashoffset:2.5;stroke-opacity:1"
         id="circle4149"
         cx="-197.48471"
         cy="439.57803"
         r="14.773481" />
      <path
         inkscape:connector-curvature="0"
         id="circle4151"
         d="M -197.48374,422.15324 A 17.425131,17.425131 0 0 0 -214.90952,439.57902 17.425131,17.425131 0 0 0 -197.48374,457.00285 17.425131,17.425131 0 0 0 -180.05991,439.57902 17.425131,17.425131 0 0 0 -197.48374,422.15324 Z M -197.48374,423.54191 A 16.036171,16.036171 0 0 1 -181.44858,439.57902 16.036171,16.036171 0 0 1 -197.48374,455.61418 16.036171,16.036171 0 0 1 -213.52085,439.57902 16.036171,16.036171 0 0 1 -197.48374,423.54191 Z"
         style="opacity:1;fill:#f0a059;fill-opacity:1;stroke:none;stroke-width:3;stroke-linecap:round;stroke-linejoin:round;stroke-miterlimit:4;stroke-dasharray:none;stroke-dashoffset:2.5;stroke-opacity:1" />
    </g>
    <g
       id="g4169"
       transform="translate(0,73.993674)">
      <circle
         style="opacity:1;fill:#018a8a;fill-opacity:1;stroke:none;stroke-width:3;stroke-linecap:round;stroke-linejoin:round;stroke-miterlimit:4;stroke-dasharray:none;stroke-dashoffset:2.5;stroke-opacity:1"
         id="circle4171"
         cx="-197.48471"
         cy="439.57803"
         r="21.213203" />
      <circle
         r="14.773481"
         cy="439.57803"
         cx="-197.48471"
         id="circle4173"
         style="opacity:1;fill:#ffffff;fill-opacity:1;stroke:none;stroke-width:3;stroke-linecap:round;stroke-linejoin:round;stroke-miterlimit:4;stroke-dasharray:none;stroke-dashoffset:2.5;stroke-opacity:1" />
      <path
         style="opacity:1;fill:#49b1b0;fill-opacity:1;stroke:none;stroke-width:3;stroke-linecap:round;stroke-linejoin:round;stroke-miterlimit:4;stroke-dasharray:none;stroke-dashoffset:2.5;stroke-opacity:1"
         d="M -197.48374,422.15324 A 17.425131,17.425131 0 0 0 -214.90952,439.57902 17.425131,17.425131 0 0 0 -197.48374,457.00285 17.425131,17.425131 0 0 0 -180.05991,439.57902 17.425131,17.425131 0 0 0 -197.48374,422.15324 Z M -197.48374,423.54191 A 16.036171,16.036171 0 0 1 -181.44858,439.57902 16.036171,16.036171 0 0 1 -197.48374,455.61418 16.036171,16.036171 0 0 1 -213.52085,439.57902 16.036171,16.036171 0 0 1 -197.48374,423.54191 Z"
         id="path4175"
         inkscape:connector-curvature="0" />
    </g>
    <path
       inkscape:connector-curvature="0"
       id="path4177"
       d="M -206.74468,531.24992 C -206.74468,531.24992 -204.21372,544.35772 -204.21929,551.56828 -204.22483,558.74581 -206.74468,572.16008 -206.74468,572.16008 L -200.55718,572.16008 -192.89507,572.16008 -186.70952,572.16008 C -186.70952,572.16008 -189.22937,558.74581 -189.23491,551.56828 -189.24048,544.35772 -186.70952,531.24992 -186.70952,531.24992 L -192.89507,531.24992 -200.55718,531.24992 -206.74468,531.24992 Z"
       style="opacity:1;fill:#018a8a;fill-opacity:1;stroke:none;stroke-width:3;stroke-linecap:round;stroke-linejoin:round;stroke-miterlimit:4;stroke-dasharray:none;stroke-dashoffset:2.5;stroke-opacity:1" />
    <g
       transform="translate(0,149.04944)"
       id="g4179">
      <circle
         r="21.213203"
         cy="439.57803"
         cx="-197.48471"
         id="circle4181"
         style="opacity:1;fill:#ef677b;fill-opacity:1;stroke:none;stroke-width:3;stroke-linecap:round;stroke-linejoin:round;stroke-miterlimit:4;stroke-dasharray:none;stroke-dashoffset:2.5;stroke-opacity:1" />
      <circle
         style="opacity:1;fill:#ffffff;fill-opacity:1;stroke:none;stroke-width:3;stroke-linecap:round;stroke-linejoin:round;stroke-miterlimit:4;stroke-dasharray:none;stroke-dashoffset:2.5;stroke-opacity:1"
         id="circle4183"
         cx="-197.48471"
         cy="439.57803"
         r="14.773481" />
      <path
         inkscape:connector-curvature="0"
         id="path4185"
         d="M -197.48374,422.15324 A 17.425131,17.425131 0 0 0 -214.90952,439.57902 17.425131,17.425131 0 0 0 -197.48374,457.00285 17.425131,17.425131 0 0 0 -180.05991,439.57902 17.425131,17.425131 0 0 0 -197.48374,422.15324 Z M -197.48374,423.54191 A 16.036171,16.036171 0 0 1 -181.44858,439.57902 16.036171,16.036171 0 0 1 -197.48374,455.61418 16.036171,16.036171 0 0 1 -213.52085,439.57902 16.036171,16.036171 0 0 1 -197.48374,423.54191 Z"
         style="opacity:1;fill:#f492a2;fill-opacity:1;stroke:none;stroke-width:3;stroke-linecap:round;stroke-linejoin:round;stroke-miterlimit:4;stroke-dasharray:none;stroke-dashoffset:2.5;stroke-opacity:1" />
    </g>
    <g
       id="g4189"
       transform="translate(0,-73.448877)">
      <circle
         style="opacity:1;fill:#717cb6;fill-opacity:1;stroke:none;stroke-width:3;stroke-linecap:round;stroke-linejoin:round;stroke-miterlimit:4;stroke-dasharray:none;stroke-dashoffset:2.5;stroke-opacity:1"
         id="circle4191"
         cx="-197.48471"
         cy="439.57803"
         r="21.213203" />
      <circle
         r="14.773481"
         cy="439.57803"
         cx="-197.48471"
         id="circle4193"
         style="opacity:1;fill:#ffffff;fill-opacity:1;stroke:none;stroke-width:3;stroke-linecap:round;stroke-linejoin:round;stroke-miterlimit:4;stroke-dasharray:none;stroke-dashoffset:2.5;stroke-opacity:1" />
      <path
         style="opacity:1;fill:#a1abdf;fill-opacity:1;stroke:none;stroke-width:3;stroke-linecap:round;stroke-linejoin:round;stroke-miterlimit:4;stroke-dasharray:none;stroke-dashoffset:2.5;stroke-opacity:1"
         d="M -197.48374,422.15324 A 17.425131,17.425131 0 0 0 -214.90952,439.57902 17.425131,17.425131 0 0 0 -197.48374,457.00285 17.425131,17.425131 0 0 0 -180.05991,439.57902 17.425131,17.425131 0 0 0 -197.48374,422.15324 Z M -197.48374,423.54191 A 16.036171,16.036171 0 0 1 -181.44858,439.57902 16.036171,16.036171 0 0 1 -197.48374,455.61418 16.036171,16.036171 0 0 1 -213.52085,439.57902 16.036171,16.036171 0 0 1 -197.48374,423.54191 Z"
         id="path4195"
         inkscape:connector-curvature="0" />
    </g>
    <rect
       style="opacity:0.2;fill:#e6e6e6;fill-opacity:1;stroke:#4d4d4d;stroke-width:3.04382229;stroke-linecap:round;stroke-linejoin:round;stroke-miterlimit:4;stroke-dasharray:none;stroke-dashoffset:2.5;stroke-opacity:1"
       id="rect4443"
       width="148.42609"
       height="113.12152"
       x="469.91626"
       y="396.81009" />
    <rect
       style="opacity:0.2;fill:#e6e6e6;fill-opacity:1;stroke:#4d4d4d;stroke-width:3.44805551;stroke-linecap:round;stroke-linejoin:round;stroke-miterlimit:4;stroke-dasharray:none;stroke-dashoffset:2.5;stroke-opacity:1"
       id="rect4258"
       width="148.73613"
       height="144.86015"
       x="131.10368"
       y="752.74872" />
    <path
       sodipodi:nodetypes="cccccccc"
       inkscape:connector-curvature="0"
       id="rect4264"
       d="M 56.17932,806.37887 56.17932,752.35605 204.2127,752.35605 204.2127,806.35883 M 204.2127,843.39073 204.2127,896.93009 56.17932,896.93009 56.17932,842.94073"
       style="opacity:1;fill:none;fill-opacity:1;stroke:#808080;stroke-width:3.4365015;stroke-linecap:round;stroke-linejoin:round;stroke-miterlimit:4;stroke-dasharray:none;stroke-dashoffset:2.5;stroke-opacity:1" />
    <g
       transform="matrix(0,1,-1,0,793.38454,736.23462)"
       id="g4272">
      <path
         inkscape:connector-curvature="0"
         id="path4217"
         d="M 79.683892,680.53563 C 79.683892,680.53563 82.214852,693.64343 82.209282,700.85399 82.203742,708.03152 79.683892,721.44579 79.683892,721.44579 L 85.871392,721.44579 93.533502,721.44579 99.719052,721.44579 C 99.719052,721.44579 97.199202,708.03152 97.193662,700.85399 97.188092,693.64343 99.719052,680.53563 99.719052,680.53563 L 93.533502,680.53563 85.871392,680.53563 79.683892,680.53563 Z"
         style="opacity:1;fill:#018a8a;fill-opacity:1;stroke:none;stroke-width:3;stroke-linecap:round;stroke-linejoin:round;stroke-miterlimit:4;stroke-dasharray:none;stroke-dashoffset:2.5;stroke-opacity:1" />
      <path
         inkscape:connector-curvature="0"
         style="opacity:1;fill:#ef677b;fill-opacity:1;stroke:none;stroke-width:3;stroke-linecap:round;stroke-linejoin:round;stroke-miterlimit:4;stroke-dasharray:none;stroke-dashoffset:2.5;stroke-opacity:1"
         d="M 77.695312,608.30859 A 21.213203,21.213203 0 0 0 56.482422,629.52148 21.213203,21.213203 0 0 0 77.695312,650.73438 21.213203,21.213203 0 0 0 98.908203,629.52148 21.213203,21.213203 0 0 0 77.695312,608.30859 Z M 77.695312,614.74805 A 14.773481,14.773481 0 0 1 92.46875,629.52148 14.773481,14.773481 0 0 1 77.695312,644.29492 14.773481,14.773481 0 0 1 62.921875,629.52148 14.773481,14.773481 0 0 1 77.695312,614.74805 Z"
         transform="matrix(0,-1,1,0,-540.57732,815.6079)"
         id="circle4219" />
      <path
         inkscape:connector-curvature="0"
         id="path4223"
         d="M 88.944832,571.43895 A 17.425131,17.425131 0 0 0 71.519052,588.86473 17.425131,17.425131 0 0 0 88.944832,606.28856 17.425131,17.425131 0 0 0 106.36866,588.86473 17.425131,17.425131 0 0 0 88.944832,571.43895 Z M 88.944832,572.82762 A 16.036171,16.036171 0 0 1 104.97999,588.86473 16.036171,16.036171 0 0 1 88.944832,604.89989 16.036171,16.036171 0 0 1 72.907722,588.86473 16.036171,16.036171 0 0 1 88.944832,572.82762 Z"
         style="opacity:1;fill:#f492a2;fill-opacity:1;stroke:none;stroke-width:3;stroke-linecap:round;stroke-linejoin:round;stroke-miterlimit:4;stroke-dasharray:none;stroke-dashoffset:2.5;stroke-opacity:1"
         transform="translate(0,149.04944)" />
      <path
         inkscape:connector-curvature="0"
         id="path4197"
         d="M 79.683892,532.03099 C 79.683892,532.03099 82.214852,545.13879 82.209282,552.34935 82.203742,559.52688 79.683892,572.94115 79.683892,572.94115 L 85.871392,572.94115 93.533502,572.94115 99.719052,572.94115 C 99.719052,572.94115 97.199202,559.52688 97.193662,552.34935 97.188092,545.13879 99.719052,532.03099 99.719052,532.03099 L 93.533502,532.03099 85.871392,532.03099 79.683892,532.03099 Z"
         style="opacity:1;fill:#717cb6;fill-opacity:1;stroke:none;stroke-width:3;stroke-linecap:round;stroke-linejoin:round;stroke-miterlimit:4;stroke-dasharray:none;stroke-dashoffset:2.5;stroke-opacity:1" />
      <path
         style="opacity:1;fill:#e77d1f;fill-opacity:1;stroke:none;stroke-width:3;stroke-linecap:round;stroke-linejoin:round;stroke-miterlimit:4;stroke-dasharray:none;stroke-dashoffset:2.5;stroke-opacity:1"
         d="M 79.683892,605.47987 C 79.683892,605.47987 82.214852,618.58767 82.209282,625.79823 82.203742,632.97576 79.683892,646.39003 79.683892,646.39003 L 85.871392,646.39003 93.533502,646.39003 99.719052,646.39003 C 99.719052,646.39003 97.199202,632.97576 97.193662,625.79823 97.188092,618.58767 99.719052,605.47987 99.719052,605.47987 L 93.533502,605.47987 85.871392,605.47987 79.683892,605.47987 Z"
         id="path4199"
         inkscape:connector-curvature="0" />
      <path
         inkscape:connector-curvature="0"
         id="circle4203"
         d="M 67.73127,588.86376 A 21.213203,21.213203 0 0 0 88.94416,610.07665 21.213203,21.213203 0 0 0 110.15706,588.86376 21.213203,21.213203 0 0 0 88.94416,567.65087 21.213203,21.213203 0 0 0 67.73127,588.86376 Z M 74.17073,588.86376 A 14.773481,14.773481 0 0 1 88.94416,574.09032 14.773481,14.773481 0 0 1 103.7176,588.86376 14.773481,14.773481 0 0 1 88.94416,603.6372 14.773481,14.773481 0 0 1 74.17073,588.86376 Z"
         style="opacity:1;fill:#e77d1f;fill-opacity:1;stroke:none;stroke-width:3;stroke-linecap:round;stroke-linejoin:round;stroke-miterlimit:4;stroke-dasharray:none;stroke-dashoffset:2.5;stroke-opacity:1" />
      <path
         style="opacity:1;fill:#f0a059;fill-opacity:1;stroke:none;stroke-width:3;stroke-linecap:round;stroke-linejoin:round;stroke-miterlimit:4;stroke-dasharray:none;stroke-dashoffset:2.5;stroke-opacity:1"
         d="M 88.94483,571.43895 A 17.425131,17.425131 0 0 0 71.51905,588.86473 17.425131,17.425131 0 0 0 88.94483,606.28856 17.425131,17.425131 0 0 0 106.36866,588.86473 17.425131,17.425131 0 0 0 88.94483,571.43895 Z M 88.94483,572.82762 A 16.036171,16.036171 0 0 1 104.97999,588.86473 16.036171,16.036171 0 0 1 88.94483,604.89989 16.036171,16.036171 0 0 1 72.90772,588.86473 16.036171,16.036171 0 0 1 88.94483,572.82762 Z"
         id="path4207"
         inkscape:connector-curvature="0" />
      <path
         inkscape:connector-curvature="0"
         id="circle4211"
         d="M 67.73127,662.8579 A 21.213203,21.213203 0 0 0 88.94416,684.07079 21.213203,21.213203 0 0 0 110.15706,662.8579 21.213203,21.213203 0 0 0 88.94416,641.64501 21.213203,21.213203 0 0 0 67.73127,662.8579 Z M 74.17073,662.8579 A 14.773481,14.773481 0 0 1 88.94416,648.08446 14.773481,14.773481 0 0 1 103.7176,662.8579 14.773481,14.773481 0 0 1 88.94416,677.63134 14.773481,14.773481 0 0 1 74.17073,662.8579 Z"
         style="opacity:1;fill:#018a8a;fill-opacity:1;stroke:none;stroke-width:3;stroke-linecap:round;stroke-linejoin:round;stroke-miterlimit:4;stroke-dasharray:none;stroke-dashoffset:2.5;stroke-opacity:1" />
      <path
         inkscape:connector-curvature="0"
         id="path4215"
         d="M 88.94483,645.43263 A 17.425131,17.425131 0 0 0 71.51905,662.85841 17.425131,17.425131 0 0 0 88.94483,680.28224 17.425131,17.425131 0 0 0 106.36866,662.85841 17.425131,17.425131 0 0 0 88.94483,645.43263 Z M 88.94483,646.8213 A 16.036171,16.036171 0 0 1 104.97999,662.85841 16.036171,16.036171 0 0 1 88.94483,678.89357 16.036171,16.036171 0 0 1 72.90772,662.85841 16.036171,16.036171 0 0 1 88.94483,646.8213 Z"
         style="opacity:1;fill:#49b1b0;fill-opacity:1;stroke:none;stroke-width:3;stroke-linecap:round;stroke-linejoin:round;stroke-miterlimit:4;stroke-dasharray:none;stroke-dashoffset:2.5;stroke-opacity:1" />
      <path
         inkscape:connector-curvature="0"
         id="circle4227"
         d="M 67.73127,515.41454 A 21.213203,21.213203 0 0 0 88.94416,536.62743 21.213203,21.213203 0 0 0 110.15706,515.41454 21.213203,21.213203 0 0 0 88.94416,494.20165 21.213203,21.213203 0 0 0 67.73127,515.41454 Z M 74.17073,515.41454 A 14.773481,14.773481 0 0 1 88.94416,500.6411 14.773481,14.773481 0 0 1 103.7176,515.41454 14.773481,14.773481 0 0 1 88.94416,530.18798 14.773481,14.773481 0 0 1 74.17073,515.41454 Z"
         style="opacity:1;fill:#717cb6;fill-opacity:1;stroke:none;stroke-width:3;stroke-linecap:round;stroke-linejoin:round;stroke-miterlimit:4;stroke-dasharray:none;stroke-dashoffset:2.5;stroke-opacity:1" />
      <path
         inkscape:connector-curvature="0"
         id="path4231"
         d="M 88.94483,497.99008 A 17.425131,17.425131 0 0 0 71.51905,515.41586 17.425131,17.425131 0 0 0 88.94483,532.83969 17.425131,17.425131 0 0 0 106.36866,515.41586 17.425131,17.425131 0 0 0 88.94483,497.99008 Z M 88.94483,499.37875 A 16.036171,16.036171 0 0 1 104.97999,515.41586 16.036171,16.036171 0 0 1 88.94483,531.45102 16.036171,16.036171 0 0 1 72.90772,515.41586 16.036171,16.036171 0 0 1 88.94483,499.37875 Z"
         style="opacity:1;fill:#a1abdf;fill-opacity:1;stroke:none;stroke-width:3;stroke-linecap:round;stroke-linejoin:round;stroke-miterlimit:4;stroke-dasharray:none;stroke-dashoffset:2.5;stroke-opacity:1" />
    </g>
    <rect
       style="opacity:1;fill:none;fill-opacity:1;stroke:#b3b3b3;stroke-width:3.04382205;stroke-linecap:round;stroke-linejoin:round;stroke-miterlimit:4;stroke-dasharray:none;stroke-dashoffset:2.5;stroke-opacity:1"
       id="rect4287"
       width="148.42609"
       height="113.12151"
       x="153.52922"
       y="389.73901" />
    <rect
       y="389.74258"
       x="77.367058"
       height="113.11437"
       width="149.13322"
       id="rect4289"
       style="opacity:0.2;fill:#808080;fill-opacity:1;stroke:#000000;stroke-width:3.05096793;stroke-linecap:round;stroke-linejoin:round;stroke-miterlimit:4;stroke-dasharray:none;stroke-dashoffset:2.5;stroke-opacity:1" />
    <path
       style="opacity:1;fill:none;fill-opacity:1;stroke:#808080;stroke-width:3.04382205;stroke-linecap:round;stroke-linejoin:round;stroke-miterlimit:4;stroke-dasharray:none;stroke-dashoffset:2.5;stroke-opacity:1"
       d="M 413.5097,690.31727 413.5097,652.37869 561.93578,652.37869 561.93578,689.60298 M 561.93578,729.47672 561.93578,765.5002 413.5097,765.5002 413.5097,727.46013"
       id="path4379"
       inkscape:connector-curvature="0"
       sodipodi:nodetypes="cccccccc" />
    <rect
       y="396.81009"
       x="393.64972"
       height="113.12152"
       width="148.42609"
       id="rect4377"
       style="opacity:1;fill:none;fill-opacity:1;stroke:#999999;stroke-width:3.04382229;stroke-linecap:round;stroke-linejoin:round;stroke-miterlimit:4;stroke-dasharray:none;stroke-dashoffset:2.5;stroke-opacity:1" />
    <g
       id="g4381"
       transform="matrix(0,1,-1,0,1130.7755,364.42668)">
      <path
         style="opacity:1;fill:#018a8a;fill-opacity:1;stroke:none;stroke-width:3;stroke-linecap:round;stroke-linejoin:round;stroke-miterlimit:4;stroke-dasharray:none;stroke-dashoffset:2.5;stroke-opacity:1"
         d="M 79.683892,680.53563 C 79.683892,680.53563 82.214852,693.64343 82.209282,700.85399 82.203742,708.03152 79.683892,721.44579 79.683892,721.44579 L 85.871392,721.44579 93.533502,721.44579 99.719052,721.44579 C 99.719052,721.44579 97.199202,708.03152 97.193662,700.85399 97.188092,693.64343 99.719052,680.53563 99.719052,680.53563 L 93.533502,680.53563 85.871392,680.53563 79.683892,680.53563 Z"
         id="path4383"
         inkscape:connector-curvature="0" />
      <path
         id="path4385"
         transform="matrix(0,-1,1,0,-540.57732,815.6079)"
         d="M 77.695312,608.30859 A 21.213203,21.213203 0 0 0 56.482422,629.52148 21.213203,21.213203 0 0 0 77.695312,650.73438 21.213203,21.213203 0 0 0 98.908203,629.52148 21.213203,21.213203 0 0 0 77.695312,608.30859 Z M 77.695312,614.74805 A 14.773481,14.773481 0 0 1 92.46875,629.52148 14.773481,14.773481 0 0 1 77.695312,644.29492 14.773481,14.773481 0 0 1 62.921875,629.52148 14.773481,14.773481 0 0 1 77.695312,614.74805 Z"
         style="opacity:1;fill:#ef677b;fill-opacity:1;stroke:none;stroke-width:3;stroke-linecap:round;stroke-linejoin:round;stroke-miterlimit:4;stroke-dasharray:none;stroke-dashoffset:2.5;stroke-opacity:1"
         inkscape:connector-curvature="0" />
      <path
         transform="translate(0,149.04944)"
         style="opacity:1;fill:#f492a2;fill-opacity:1;stroke:none;stroke-width:3;stroke-linecap:round;stroke-linejoin:round;stroke-miterlimit:4;stroke-dasharray:none;stroke-dashoffset:2.5;stroke-opacity:1"
         d="M 88.944832,571.43895 A 17.425131,17.425131 0 0 0 71.519052,588.86473 17.425131,17.425131 0 0 0 88.944832,606.28856 17.425131,17.425131 0 0 0 106.36866,588.86473 17.425131,17.425131 0 0 0 88.944832,571.43895 Z M 88.944832,572.82762 A 16.036171,16.036171 0 0 1 104.97999,588.86473 16.036171,16.036171 0 0 1 88.944832,604.89989 16.036171,16.036171 0 0 1 72.907722,588.86473 16.036171,16.036171 0 0 1 88.944832,572.82762 Z"
         id="path4387"
         inkscape:connector-curvature="0" />
      <path
         style="opacity:1;fill:#717cb6;fill-opacity:1;stroke:none;stroke-width:3;stroke-linecap:round;stroke-linejoin:round;stroke-miterlimit:4;stroke-dasharray:none;stroke-dashoffset:2.5;stroke-opacity:1"
         d="M 79.683892,532.03099 C 79.683892,532.03099 82.214852,545.13879 82.209282,552.34935 82.203742,559.52688 79.683892,572.94115 79.683892,572.94115 L 85.871392,572.94115 93.533502,572.94115 99.719052,572.94115 C 99.719052,572.94115 97.199202,559.52688 97.193662,552.34935 97.188092,545.13879 99.719052,532.03099 99.719052,532.03099 L 93.533502,532.03099 85.871392,532.03099 79.683892,532.03099 Z"
         id="path4389"
         inkscape:connector-curvature="0" />
      <path
         inkscape:connector-curvature="0"
         id="path4391"
         d="M 79.683892,605.47987 C 79.683892,605.47987 82.214852,618.58767 82.209282,625.79823 82.203742,632.97576 79.683892,646.39003 79.683892,646.39003 L 85.871392,646.39003 93.533502,646.39003 99.719052,646.39003 C 99.719052,646.39003 97.199202,632.97576 97.193662,625.79823 97.188092,618.58767 99.719052,605.47987 99.719052,605.47987 L 93.533502,605.47987 85.871392,605.47987 79.683892,605.47987 Z"
         style="opacity:1;fill:#e77d1f;fill-opacity:1;stroke:none;stroke-width:3;stroke-linecap:round;stroke-linejoin:round;stroke-miterlimit:4;stroke-dasharray:none;stroke-dashoffset:2.5;stroke-opacity:1" />
      <path
         style="opacity:1;fill:#e77d1f;fill-opacity:1;stroke:none;stroke-width:3;stroke-linecap:round;stroke-linejoin:round;stroke-miterlimit:4;stroke-dasharray:none;stroke-dashoffset:2.5;stroke-opacity:1"
         d="M 67.73127,588.86376 A 21.213203,21.213203 0 0 0 88.94416,610.07665 21.213203,21.213203 0 0 0 110.15706,588.86376 21.213203,21.213203 0 0 0 88.94416,567.65087 21.213203,21.213203 0 0 0 67.73127,588.86376 Z M 74.17073,588.86376 A 14.773481,14.773481 0 0 1 88.94416,574.09032 14.773481,14.773481 0 0 1 103.7176,588.86376 14.773481,14.773481 0 0 1 88.94416,603.6372 14.773481,14.773481 0 0 1 74.17073,588.86376 Z"
         id="path4393"
         inkscape:connector-curvature="0" />
      <path
         inkscape:connector-curvature="0"
         id="path4395"
         d="M 88.94483,571.43895 A 17.425131,17.425131 0 0 0 71.51905,588.86473 17.425131,17.425131 0 0 0 88.94483,606.28856 17.425131,17.425131 0 0 0 106.36866,588.86473 17.425131,17.425131 0 0 0 88.94483,571.43895 Z M 88.94483,572.82762 A 16.036171,16.036171 0 0 1 104.97999,588.86473 16.036171,16.036171 0 0 1 88.94483,604.89989 16.036171,16.036171 0 0 1 72.90772,588.86473 16.036171,16.036171 0 0 1 88.94483,572.82762 Z"
         style="opacity:1;fill:#f0a059;fill-opacity:1;stroke:none;stroke-width:3;stroke-linecap:round;stroke-linejoin:round;stroke-miterlimit:4;stroke-dasharray:none;stroke-dashoffset:2.5;stroke-opacity:1" />
      <path
         style="opacity:1;fill:#018a8a;fill-opacity:1;stroke:none;stroke-width:3;stroke-linecap:round;stroke-linejoin:round;stroke-miterlimit:4;stroke-dasharray:none;stroke-dashoffset:2.5;stroke-opacity:1"
         d="M 67.73127,662.8579 A 21.213203,21.213203 0 0 0 88.94416,684.07079 21.213203,21.213203 0 0 0 110.15706,662.8579 21.213203,21.213203 0 0 0 88.94416,641.64501 21.213203,21.213203 0 0 0 67.73127,662.8579 Z M 74.17073,662.8579 A 14.773481,14.773481 0 0 1 88.94416,648.08446 14.773481,14.773481 0 0 1 103.7176,662.8579 14.773481,14.773481 0 0 1 88.94416,677.63134 14.773481,14.773481 0 0 1 74.17073,662.8579 Z"
         id="path4397"
         inkscape:connector-curvature="0" />
      <path
         style="opacity:1;fill:#49b1b0;fill-opacity:1;stroke:none;stroke-width:3;stroke-linecap:round;stroke-linejoin:round;stroke-miterlimit:4;stroke-dasharray:none;stroke-dashoffset:2.5;stroke-opacity:1"
         d="M 88.94483,645.43263 A 17.425131,17.425131 0 0 0 71.51905,662.85841 17.425131,17.425131 0 0 0 88.94483,680.28224 17.425131,17.425131 0 0 0 106.36866,662.85841 17.425131,17.425131 0 0 0 88.94483,645.43263 Z M 88.94483,646.8213 A 16.036171,16.036171 0 0 1 104.97999,662.85841 16.036171,16.036171 0 0 1 88.94483,678.89357 16.036171,16.036171 0 0 1 72.90772,662.85841 16.036171,16.036171 0 0 1 88.94483,646.8213 Z"
         id="path4399"
         inkscape:connector-curvature="0" />
      <path
         style="opacity:1;fill:#717cb6;fill-opacity:1;stroke:none;stroke-width:3;stroke-linecap:round;stroke-linejoin:round;stroke-miterlimit:4;stroke-dasharray:none;stroke-dashoffset:2.5;stroke-opacity:1"
         d="M 67.73127,515.41454 A 21.213203,21.213203 0 0 0 88.94416,536.62743 21.213203,21.213203 0 0 0 110.15706,515.41454 21.213203,21.213203 0 0 0 88.94416,494.20165 21.213203,21.213203 0 0 0 67.73127,515.41454 Z M 74.17073,515.41454 A 14.773481,14.773481 0 0 1 88.94416,500.6411 14.773481,14.773481 0 0 1 103.7176,515.41454 14.773481,14.773481 0 0 1 88.94416,530.18798 14.773481,14.773481 0 0 1 74.17073,515.41454 Z"
         id="path4401"
         inkscape:connector-curvature="0" />
      <path
         style="opacity:1;fill:#a1abdf;fill-opacity:1;stroke:none;stroke-width:3;stroke-linecap:round;stroke-linejoin:round;stroke-miterlimit:4;stroke-dasharray:none;stroke-dashoffset:2.5;stroke-opacity:1"
         d="M 88.94483,497.99008 A 17.425131,17.425131 0 0 0 71.51905,515.41586 17.425131,17.425131 0 0 0 88.94483,532.83969 17.425131,17.425131 0 0 0 106.36866,515.41586 17.425131,17.425131 0 0 0 88.94483,497.99008 Z M 88.94483,499.37875 A 16.036171,16.036171 0 0 1 104.97999,515.41586 16.036171,16.036171 0 0 1 88.94483,531.45102 16.036171,16.036171 0 0 1 72.90772,515.41586 16.036171,16.036171 0 0 1 88.94483,499.37875 Z"
         id="path4403"
         inkscape:connector-curvature="0" />
    </g>
    <rect
       y="573.59033"
       x="126.86456"
       height="113.11437"
       width="149.13322"
       id="rect4445"
       style="opacity:0.2;fill:#e6e6e6;fill-opacity:1;stroke:#4d4d4d;stroke-width:3.05096793;stroke-linecap:round;stroke-linejoin:round;stroke-miterlimit:4;stroke-dasharray:none;stroke-dashoffset:2.5;stroke-opacity:1" />
    <path
       style="opacity:1;fill:none;fill-opacity:1;stroke:#808080;stroke-width:3.04382205;stroke-linecap:round;stroke-linejoin:round;stroke-miterlimit:4;stroke-dasharray:none;stroke-dashoffset:2.5;stroke-opacity:1"
       d="M 50.99874,611.52537 50.99874,573.58679 199.42482,573.58679 199.42482,610.81108 M 199.42482,650.68482 199.42482,686.7083 50.99874,686.7083 50.99874,648.66823"
       id="path4447"
       inkscape:connector-curvature="0"
       sodipodi:nodetypes="cccccccc" />
    <g
       id="g4449"
       transform="matrix(0,1,-1,0,789.34393,541.20338)">
      <path
         style="opacity:1;fill:#018a8a;fill-opacity:1;stroke:none;stroke-width:3;stroke-linecap:round;stroke-linejoin:round;stroke-miterlimit:4;stroke-dasharray:none;stroke-dashoffset:2.5;stroke-opacity:1"
         d="M 79.683892,680.53563 C 79.683892,680.53563 82.214852,693.64343 82.209282,700.85399 82.203742,708.03152 79.683892,721.44579 79.683892,721.44579 L 85.871392,721.44579 93.533502,721.44579 99.719052,721.44579 C 99.719052,721.44579 97.199202,708.03152 97.193662,700.85399 97.188092,693.64343 99.719052,680.53563 99.719052,680.53563 L 93.533502,680.53563 85.871392,680.53563 79.683892,680.53563 Z"
         id="path4451"
         inkscape:connector-curvature="0" />
      <path
         id="path4453"
         transform="matrix(0,-1,1,0,-540.57732,815.6079)"
         d="M 77.695312,608.30859 A 21.213203,21.213203 0 0 0 56.482422,629.52148 21.213203,21.213203 0 0 0 77.695312,650.73438 21.213203,21.213203 0 0 0 98.908203,629.52148 21.213203,21.213203 0 0 0 77.695312,608.30859 Z M 77.695312,614.74805 A 14.773481,14.773481 0 0 1 92.46875,629.52148 14.773481,14.773481 0 0 1 77.695312,644.29492 14.773481,14.773481 0 0 1 62.921875,629.52148 14.773481,14.773481 0 0 1 77.695312,614.74805 Z"
         style="opacity:1;fill:#ef677b;fill-opacity:1;stroke:none;stroke-width:3;stroke-linecap:round;stroke-linejoin:round;stroke-miterlimit:4;stroke-dasharray:none;stroke-dashoffset:2.5;stroke-opacity:1"
         inkscape:connector-curvature="0" />
      <path
         transform="translate(0,149.04944)"
         style="opacity:1;fill:#f492a2;fill-opacity:1;stroke:none;stroke-width:3;stroke-linecap:round;stroke-linejoin:round;stroke-miterlimit:4;stroke-dasharray:none;stroke-dashoffset:2.5;stroke-opacity:1"
         d="M 88.944832,571.43895 A 17.425131,17.425131 0 0 0 71.519052,588.86473 17.425131,17.425131 0 0 0 88.944832,606.28856 17.425131,17.425131 0 0 0 106.36866,588.86473 17.425131,17.425131 0 0 0 88.944832,571.43895 Z M 88.944832,572.82762 A 16.036171,16.036171 0 0 1 104.97999,588.86473 16.036171,16.036171 0 0 1 88.944832,604.89989 16.036171,16.036171 0 0 1 72.907722,588.86473 16.036171,16.036171 0 0 1 88.944832,572.82762 Z"
         id="path4455"
         inkscape:connector-curvature="0" />
      <path
         style="opacity:1;fill:#717cb6;fill-opacity:1;stroke:none;stroke-width:3;stroke-linecap:round;stroke-linejoin:round;stroke-miterlimit:4;stroke-dasharray:none;stroke-dashoffset:2.5;stroke-opacity:1"
         d="M 79.683892,532.03099 C 79.683892,532.03099 82.214852,545.13879 82.209282,552.34935 82.203742,559.52688 79.683892,572.94115 79.683892,572.94115 L 85.871392,572.94115 93.533502,572.94115 99.719052,572.94115 C 99.719052,572.94115 97.199202,559.52688 97.193662,552.34935 97.188092,545.13879 99.719052,532.03099 99.719052,532.03099 L 93.533502,532.03099 85.871392,532.03099 79.683892,532.03099 Z"
         id="path4457"
         inkscape:connector-curvature="0" />
      <path
         inkscape:connector-curvature="0"
         id="path4459"
         d="M 79.683892,605.47987 C 79.683892,605.47987 82.214852,618.58767 82.209282,625.79823 82.203742,632.97576 79.683892,646.39003 79.683892,646.39003 L 85.871392,646.39003 93.533502,646.39003 99.719052,646.39003 C 99.719052,646.39003 97.199202,632.97576 97.193662,625.79823 97.188092,618.58767 99.719052,605.47987 99.719052,605.47987 L 93.533502,605.47987 85.871392,605.47987 79.683892,605.47987 Z"
         style="opacity:1;fill:#e77d1f;fill-opacity:1;stroke:none;stroke-width:3;stroke-linecap:round;stroke-linejoin:round;stroke-miterlimit:4;stroke-dasharray:none;stroke-dashoffset:2.5;stroke-opacity:1" />
      <path
         style="opacity:1;fill:#e77d1f;fill-opacity:1;stroke:none;stroke-width:3;stroke-linecap:round;stroke-linejoin:round;stroke-miterlimit:4;stroke-dasharray:none;stroke-dashoffset:2.5;stroke-opacity:1"
         d="M 67.73127,588.86376 A 21.213203,21.213203 0 0 0 88.94416,610.07665 21.213203,21.213203 0 0 0 110.15706,588.86376 21.213203,21.213203 0 0 0 88.94416,567.65087 21.213203,21.213203 0 0 0 67.73127,588.86376 Z M 74.17073,588.86376 A 14.773481,14.773481 0 0 1 88.94416,574.09032 14.773481,14.773481 0 0 1 103.7176,588.86376 14.773481,14.773481 0 0 1 88.94416,603.6372 14.773481,14.773481 0 0 1 74.17073,588.86376 Z"
         id="path4461"
         inkscape:connector-curvature="0" />
      <path
         inkscape:connector-curvature="0"
         id="path4463"
         d="M 88.94483,571.43895 A 17.425131,17.425131 0 0 0 71.51905,588.86473 17.425131,17.425131 0 0 0 88.94483,606.28856 17.425131,17.425131 0 0 0 106.36866,588.86473 17.425131,17.425131 0 0 0 88.94483,571.43895 Z M 88.94483,572.82762 A 16.036171,16.036171 0 0 1 104.97999,588.86473 16.036171,16.036171 0 0 1 88.94483,604.89989 16.036171,16.036171 0 0 1 72.90772,588.86473 16.036171,16.036171 0 0 1 88.94483,572.82762 Z"
         style="opacity:1;fill:#f0a059;fill-opacity:1;stroke:none;stroke-width:3;stroke-linecap:round;stroke-linejoin:round;stroke-miterlimit:4;stroke-dasharray:none;stroke-dashoffset:2.5;stroke-opacity:1" />
      <path
         style="opacity:1;fill:#018a8a;fill-opacity:1;stroke:none;stroke-width:3;stroke-linecap:round;stroke-linejoin:round;stroke-miterlimit:4;stroke-dasharray:none;stroke-dashoffset:2.5;stroke-opacity:1"
         d="M 67.73127,662.8579 A 21.213203,21.213203 0 0 0 88.94416,684.07079 21.213203,21.213203 0 0 0 110.15706,662.8579 21.213203,21.213203 0 0 0 88.94416,641.64501 21.213203,21.213203 0 0 0 67.73127,662.8579 Z M 74.17073,662.8579 A 14.773481,14.773481 0 0 1 88.94416,648.08446 14.773481,14.773481 0 0 1 103.7176,662.8579 14.773481,14.773481 0 0 1 88.94416,677.63134 14.773481,14.773481 0 0 1 74.17073,662.8579 Z"
         id="path4465"
         inkscape:connector-curvature="0" />
      <path
         style="opacity:1;fill:#49b1b0;fill-opacity:1;stroke:none;stroke-width:3;stroke-linecap:round;stroke-linejoin:round;stroke-miterlimit:4;stroke-dasharray:none;stroke-dashoffset:2.5;stroke-opacity:1"
         d="M 88.94483,645.43263 A 17.425131,17.425131 0 0 0 71.51905,662.85841 17.425131,17.425131 0 0 0 88.94483,680.28224 17.425131,17.425131 0 0 0 106.36866,662.85841 17.425131,17.425131 0 0 0 88.94483,645.43263 Z M 88.94483,646.8213 A 16.036171,16.036171 0 0 1 104.97999,662.85841 16.036171,16.036171 0 0 1 88.94483,678.89357 16.036171,16.036171 0 0 1 72.90772,662.85841 16.036171,16.036171 0 0 1 88.94483,646.8213 Z"
         id="path4467"
         inkscape:connector-curvature="0" />
      <path
         inkscape:connector-curvature="0"
         id="path4498"
         d="M 79.683892,458.28985 C 79.683892,458.28985 82.214852,471.39765 82.209282,478.60821 82.203742,485.78574 79.683892,499.20001 79.683892,499.20001 L 85.871392,499.20001 93.533502,499.20001 99.719052,499.20001 C 99.719052,499.20001 97.199202,485.78574 97.193662,478.60821 97.188092,471.39765 99.719052,458.28985 99.719052,458.28985 L 93.533502,458.28985 85.871392,458.28985 79.683892,458.28985 Z"
         style="opacity:1;fill:#ffd42a;fill-opacity:1;stroke:none;stroke-width:3;stroke-linecap:round;stroke-linejoin:round;stroke-miterlimit:4;stroke-dasharray:none;stroke-dashoffset:2.5;stroke-opacity:1" />
      <path
         style="opacity:1;fill:#717cb6;fill-opacity:1;stroke:none;stroke-width:3;stroke-linecap:round;stroke-linejoin:round;stroke-miterlimit:4;stroke-dasharray:none;stroke-dashoffset:2.5;stroke-opacity:1"
         d="M 67.73127,515.41454 A 21.213203,21.213203 0 0 0 88.94416,536.62743 21.213203,21.213203 0 0 0 110.15706,515.41454 21.213203,21.213203 0 0 0 88.94416,494.20165 21.213203,21.213203 0 0 0 67.73127,515.41454 Z M 74.17073,515.41454 A 14.773481,14.773481 0 0 1 88.94416,500.6411 14.773481,14.773481 0 0 1 103.7176,515.41454 14.773481,14.773481 0 0 1 88.94416,530.18798 14.773481,14.773481 0 0 1 74.17073,515.41454 Z"
         id="path4469"
         inkscape:connector-curvature="0" />
      <path
         style="opacity:1;fill:#a1abdf;fill-opacity:1;stroke:none;stroke-width:3;stroke-linecap:round;stroke-linejoin:round;stroke-miterlimit:4;stroke-dasharray:none;stroke-dashoffset:2.5;stroke-opacity:1"
         d="M 88.94483,497.99008 A 17.425131,17.425131 0 0 0 71.51905,515.41586 17.425131,17.425131 0 0 0 88.94483,532.83969 17.425131,17.425131 0 0 0 106.36866,515.41586 17.425131,17.425131 0 0 0 88.94483,497.99008 Z M 88.94483,499.37875 A 16.036171,16.036171 0 0 1 104.97999,515.41586 16.036171,16.036171 0 0 1 88.94483,531.45102 16.036171,16.036171 0 0 1 72.90772,515.41586 16.036171,16.036171 0 0 1 88.94483,499.37875 Z"
         id="path4471"
         inkscape:connector-curvature="0" />
      <path
         inkscape:connector-curvature="0"
         id="path4500"
         d="M 67.73127,441.6734 A 21.213203,21.213203 0 0 0 88.94416,462.88629 21.213203,21.213203 0 0 0 110.15706,441.6734 21.213203,21.213203 0 0 0 88.94416,420.46051 21.213203,21.213203 0 0 0 67.73127,441.6734 Z M 74.17073,441.6734 A 14.773481,14.773481 0 0 1 88.94416,426.89996 14.773481,14.773481 0 0 1 103.7176,441.6734 14.773481,14.773481 0 0 1 88.94416,456.44684 14.773481,14.773481 0 0 1 74.17073,441.6734 Z"
         style="opacity:1;fill:#ffd42a;fill-opacity:1;stroke:none;stroke-width:3;stroke-linecap:round;stroke-linejoin:round;stroke-miterlimit:4;stroke-dasharray:none;stroke-dashoffset:2.5;stroke-opacity:1" />
      <path
         inkscape:connector-curvature="0"
         id="path4502"
         d="M 88.94483,424.24894 A 17.425131,17.425131 0 0 0 71.51905,441.67472 17.425131,17.425131 0 0 0 88.94483,459.09855 17.425131,17.425131 0 0 0 106.36866,441.67472 17.425131,17.425131 0 0 0 88.94483,424.24894 Z M 88.94483,425.63761 A 16.036171,16.036171 0 0 1 104.97999,441.67472 16.036171,16.036171 0 0 1 88.94483,457.70988 16.036171,16.036171 0 0 1 72.90772,441.67472 16.036171,16.036171 0 0 1 88.94483,425.63761 Z"
         style="opacity:1;fill:#ffe472;fill-opacity:1;stroke:none;stroke-width:3;stroke-linecap:round;stroke-linejoin:round;stroke-miterlimit:4;stroke-dasharray:none;stroke-dashoffset:2.5;stroke-opacity:1" />
    </g>
    <g
       id="g4355"
       transform="matrix(0,1,-1,0,538.49265,362.72589)">
      <path
         inkscape:connector-curvature="0"
         id="path4317"
         d="M 79.12849,250.4153 C 79.12849,250.4153 81.65945,263.5231 81.65388,270.73366 81.64834,277.91119 79.12849,291.32546 79.12849,291.32546 L 85.31599,291.32546 92.9781,291.32546 99.16365,291.32546 C 99.16365,291.32546 96.6438,277.91119 96.63826,270.73366 96.63269,263.5231 99.16365,250.4153 99.16365,250.4153 L 92.9781,250.4153 85.31599,250.4153 79.12849,250.4153 Z"
         style="opacity:1;fill:#717cb6;fill-opacity:1;stroke:none;stroke-width:3;stroke-linecap:round;stroke-linejoin:round;stroke-miterlimit:4;stroke-dasharray:none;stroke-dashoffset:2.5;stroke-opacity:1" />
      <path
         style="opacity:1;fill:#e77d1f;fill-opacity:1;stroke:none;stroke-width:3;stroke-linecap:round;stroke-linejoin:round;stroke-miterlimit:4;stroke-dasharray:none;stroke-dashoffset:2.5;stroke-opacity:1"
         d="M 79.12849,323.86418 C 79.12849,323.86418 81.65945,336.97198 81.65388,344.18254 81.64834,351.36007 79.12849,364.77434 79.12849,364.77434 L 85.31599,364.77434 92.9781,364.77434 99.16365,364.77434 C 99.16365,364.77434 96.6438,351.36007 96.63826,344.18254 96.63269,336.97198 99.16365,323.86418 99.16365,323.86418 L 92.9781,323.86418 85.31599,323.86418 79.12849,323.86418 Z"
         id="path4319"
         inkscape:connector-curvature="0" />
      <g
         transform="translate(285.87317,-132.32998)"
         id="g4321">
        <circle
           r="21.213203"
           cy="439.57803"
           cx="-197.48471"
           id="circle4323"
           style="opacity:1;fill:#e77d1f;fill-opacity:1;stroke:none;stroke-width:3;stroke-linecap:round;stroke-linejoin:round;stroke-miterlimit:4;stroke-dasharray:none;stroke-dashoffset:2.5;stroke-opacity:1" />
        <circle
           style="opacity:1;fill:#ffffff;fill-opacity:1;stroke:none;stroke-width:3;stroke-linecap:round;stroke-linejoin:round;stroke-miterlimit:4;stroke-dasharray:none;stroke-dashoffset:2.5;stroke-opacity:1"
           id="circle4325"
           cx="-197.48471"
           cy="439.57803"
           r="14.773481" />
        <path
           inkscape:connector-curvature="0"
           id="path4327"
           d="M -197.48374,422.15324 A 17.425131,17.425131 0 0 0 -214.90952,439.57902 17.425131,17.425131 0 0 0 -197.48374,457.00285 17.425131,17.425131 0 0 0 -180.05991,439.57902 17.425131,17.425131 0 0 0 -197.48374,422.15324 Z M -197.48374,423.54191 A 16.036171,16.036171 0 0 1 -181.44858,439.57902 16.036171,16.036171 0 0 1 -197.48374,455.61418 16.036171,16.036171 0 0 1 -213.52085,439.57902 16.036171,16.036171 0 0 1 -197.48374,423.54191 Z"
           style="opacity:1;fill:#f0a059;fill-opacity:1;stroke:none;stroke-width:3;stroke-linecap:round;stroke-linejoin:round;stroke-miterlimit:4;stroke-dasharray:none;stroke-dashoffset:2.5;stroke-opacity:1" />
      </g>
      <g
         id="g4329"
         transform="translate(285.87317,-58.336309)">
        <circle
           style="opacity:1;fill:#018a8a;fill-opacity:1;stroke:none;stroke-width:3;stroke-linecap:round;stroke-linejoin:round;stroke-miterlimit:4;stroke-dasharray:none;stroke-dashoffset:2.5;stroke-opacity:1"
           id="circle4331"
           cx="-197.48471"
           cy="439.57803"
           r="21.213203" />
        <circle
           r="14.773481"
           cy="439.57803"
           cx="-197.48471"
           id="circle4333"
           style="opacity:1;fill:#ffffff;fill-opacity:1;stroke:none;stroke-width:3;stroke-linecap:round;stroke-linejoin:round;stroke-miterlimit:4;stroke-dasharray:none;stroke-dashoffset:2.5;stroke-opacity:1" />
        <path
           style="opacity:1;fill:#49b1b0;fill-opacity:1;stroke:none;stroke-width:3;stroke-linecap:round;stroke-linejoin:round;stroke-miterlimit:4;stroke-dasharray:none;stroke-dashoffset:2.5;stroke-opacity:1"
           d="M -197.48374,422.15324 A 17.425131,17.425131 0 0 0 -214.90952,439.57902 17.425131,17.425131 0 0 0 -197.48374,457.00285 17.425131,17.425131 0 0 0 -180.05991,439.57902 17.425131,17.425131 0 0 0 -197.48374,422.15324 Z M -197.48374,423.54191 A 16.036171,16.036171 0 0 1 -181.44858,439.57902 16.036171,16.036171 0 0 1 -197.48374,455.61418 16.036171,16.036171 0 0 1 -213.52085,439.57902 16.036171,16.036171 0 0 1 -197.48374,423.54191 Z"
           id="path4335"
           inkscape:connector-curvature="0" />
      </g>
      <path
         inkscape:connector-curvature="0"
         id="path4337"
         d="M 79.12849,398.91994 C 79.12849,398.91994 81.65945,412.02774 81.65388,419.2383 81.64834,426.41583 79.12849,439.8301 79.12849,439.8301 L 85.31599,439.8301 92.9781,439.8301 99.16365,439.8301 C 99.16365,439.8301 96.6438,426.41583 96.63826,419.2383 96.63269,412.02774 99.16365,398.91994 99.16365,398.91994 L 92.9781,398.91994 85.31599,398.91994 79.12849,398.91994 Z"
         style="opacity:1;fill:#018a8a;fill-opacity:1;stroke:none;stroke-width:3;stroke-linecap:round;stroke-linejoin:round;stroke-miterlimit:4;stroke-dasharray:none;stroke-dashoffset:2.5;stroke-opacity:1" />
      <g
         transform="translate(285.87317,16.719457)"
         id="g4339">
        <circle
           r="21.213203"
           cy="439.57803"
           cx="-197.48471"
           id="circle4341"
           style="opacity:1;fill:#ef677b;fill-opacity:1;stroke:none;stroke-width:3;stroke-linecap:round;stroke-linejoin:round;stroke-miterlimit:4;stroke-dasharray:none;stroke-dashoffset:2.5;stroke-opacity:1" />
        <circle
           style="opacity:1;fill:#ffffff;fill-opacity:1;stroke:none;stroke-width:3;stroke-linecap:round;stroke-linejoin:round;stroke-miterlimit:4;stroke-dasharray:none;stroke-dashoffset:2.5;stroke-opacity:1"
           id="circle4343"
           cx="-197.48471"
           cy="439.57803"
           r="14.773481" />
        <path
           inkscape:connector-curvature="0"
           id="path4345"
           d="M -197.48374,422.15324 A 17.425131,17.425131 0 0 0 -214.90952,439.57902 17.425131,17.425131 0 0 0 -197.48374,457.00285 17.425131,17.425131 0 0 0 -180.05991,439.57902 17.425131,17.425131 0 0 0 -197.48374,422.15324 Z M -197.48374,423.54191 A 16.036171,16.036171 0 0 1 -181.44858,439.57902 16.036171,16.036171 0 0 1 -197.48374,455.61418 16.036171,16.036171 0 0 1 -213.52085,439.57902 16.036171,16.036171 0 0 1 -197.48374,423.54191 Z"
           style="opacity:1;fill:#f492a2;fill-opacity:1;stroke:none;stroke-width:3;stroke-linecap:round;stroke-linejoin:round;stroke-miterlimit:4;stroke-dasharray:none;stroke-dashoffset:2.5;stroke-opacity:1" />
      </g>
      <g
         id="g4347"
         transform="translate(285.87317,-205.77886)">
        <circle
           style="opacity:1;fill:#717cb6;fill-opacity:1;stroke:none;stroke-width:3;stroke-linecap:round;stroke-linejoin:round;stroke-miterlimit:4;stroke-dasharray:none;stroke-dashoffset:2.5;stroke-opacity:1"
           id="circle4349"
           cx="-197.48471"
           cy="439.57803"
           r="21.213203" />
        <circle
           r="14.773481"
           cy="439.57803"
           cx="-197.48471"
           id="circle4351"
           style="opacity:1;fill:#ffffff;fill-opacity:1;stroke:none;stroke-width:3;stroke-linecap:round;stroke-linejoin:round;stroke-miterlimit:4;stroke-dasharray:none;stroke-dashoffset:2.5;stroke-opacity:1" />
        <path
           style="opacity:1;fill:#a1abdf;fill-opacity:1;stroke:none;stroke-width:3;stroke-linecap:round;stroke-linejoin:round;stroke-miterlimit:4;stroke-dasharray:none;stroke-dashoffset:2.5;stroke-opacity:1"
           d="M -197.48374,422.15324 A 17.425131,17.425131 0 0 0 -214.90952,439.57902 17.425131,17.425131 0 0 0 -197.48374,457.00285 17.425131,17.425131 0 0 0 -180.05991,439.57902 17.425131,17.425131 0 0 0 -197.48374,422.15324 Z M -197.48374,423.54191 A 16.036171,16.036171 0 0 1 -181.44858,439.57902 16.036171,16.036171 0 0 1 -197.48374,455.61418 16.036171,16.036171 0 0 1 -213.52085,439.57902 16.036171,16.036171 0 0 1 -197.48374,423.54191 Z"
           id="path4353"
           inkscape:connector-curvature="0" />
      </g>
    </g>
    <path
       style="opacity:1;fill:#000000;fill-opacity:1;stroke:none;stroke-width:3;stroke-linecap:round;stroke-linejoin:round;stroke-miterlimit:4;stroke-dasharray:none;stroke-dashoffset:2.5;stroke-opacity:0.2"
       d="M 175.63908,532.08726 163.37346,524.10701 163.37346,540.06878 175.63908,532.08726 Z"
       id="rect4475"
       inkscape:connector-curvature="0" />
    <g
       id="g4488"
       transform="translate(340.68362,271.10808)">
      <path
         transform="matrix(0,1,-1,0,815.6079,540.57732)"
         sodipodi:nodetypes="csc"
         inkscape:connector-curvature="0"
         id="path4473"
         d="M 68.887802,748.98742 C 68.887802,748.98742 40.825222,718.55744 40.825222,690.92165 40.825221,663.28584 65.137802,633.57017 65.137802,633.57017"
         style="display:inline;opacity:1;fill:none;fill-rule:evenodd;stroke:#000000;stroke-width:2.1838181;stroke-linecap:butt;stroke-linejoin:miter;stroke-miterlimit:4;stroke-dasharray:none;stroke-opacity:1" />
      <path
         inkscape:transform-center-y="1.1393104"
         inkscape:transform-center-x="0.8924763"
         style="opacity:1;fill:#000000;fill-opacity:1;stroke:none;stroke-width:3;stroke-linecap:round;stroke-linejoin:round;stroke-miterlimit:4;stroke-dasharray:none;stroke-dashoffset:2.5;stroke-opacity:0.2"
         d="M 187.94171,610.47841 183.53542,596.52439 173.39828,608.8539 187.94171,610.47841 Z"
         id="path4481"
         inkscape:connector-curvature="0" />
    </g>
    <rect
       style="opacity:1;fill:#ffffff;fill-opacity:1;stroke:none;stroke-width:2.0999999;stroke-linecap:round;stroke-linejoin:round;stroke-miterlimit:4;stroke-dasharray:none;stroke-dashoffset:2.5;stroke-opacity:1"
       id="rect4703"
       width="640"
       height="300"
       x="49.550186"
       y="32.600239" />
    <g
       id="g4673"
       transform="matrix(2.2164494,0,0,2.2164494,1185.1276,-1499.6161)"
       inkscape:export-filename="/home/yannick/Desktop/snapshot-interpolation/readme/logo.png"
       inkscape:export-xdpi="96"
       inkscape:export-ydpi="96">
      <g
         id="g4492"
         transform="translate(-529.86693,126.37094)">
        <path
           sodipodi:nodetypes="csc"
           inkscape:connector-curvature="0"
           id="path4494"
           d="M 72.170798,748.48234 C 72.170798,748.48234 46.896651,718.55744 46.896651,690.92165 46.89665,663.28584 65.137802,633.57017 65.137802,633.57017"
           style="display:inline;opacity:1;fill:none;fill-rule:evenodd;stroke:#000000;stroke-width:2.1838181;stroke-linecap:butt;stroke-linejoin:miter;stroke-miterlimit:4;stroke-dasharray:none;stroke-opacity:1"
           transform="matrix(0,1,-1,0,815.6079,540.57732)" />
        <path
           inkscape:transform-center-y="1.1393104"
           inkscape:transform-center-x="0.8924763"
           style="opacity:1;fill:#000000;fill-opacity:1;stroke:none;stroke-width:3;stroke-linecap:round;stroke-linejoin:round;stroke-miterlimit:4;stroke-dasharray:none;stroke-dashoffset:2.5;stroke-opacity:0.2"
           d="M 187.94171,610.47841 183.53542,596.52439 173.39828,608.8539 187.94171,610.47841 Z"
           id="path4496"
           inkscape:connector-curvature="0" />
      </g>
      <rect
         y="702.3847"
         x="-404.73328"
         height="113.12386"
         width="148.19569"
         id="rect4607"
         style="opacity:0.2;fill:#e6e6e6;fill-opacity:1;stroke:#4d4d4d;stroke-width:3.04149008;stroke-linecap:round;stroke-linejoin:round;stroke-miterlimit:4;stroke-dasharray:none;stroke-dashoffset:2.5;stroke-opacity:1" />
      <path
         style="opacity:1;fill:none;fill-opacity:1;stroke:#808080;stroke-width:3.04918289;stroke-linecap:round;stroke-linejoin:round;stroke-miterlimit:4;stroke-dasharray:none;stroke-dashoffset:2.5;stroke-opacity:1"
         d="M -479.42146,740.37 -479.42146,702.43322 -330.46503,702.43322 -330.46503,739.65575 M -330.46503,779.5276 -330.46503,815.54937 -479.42146,815.54937 -479.42146,777.5111"
         id="path4609"
         inkscape:connector-curvature="0"
         sodipodi:nodetypes="cccccccc" />
      <g
         id="g4611"
         transform="matrix(0,1,-1,0,195.05822,732.63195)">
        <path
           style="opacity:1;fill:#018a8a;fill-opacity:1;stroke:none;stroke-width:3;stroke-linecap:round;stroke-linejoin:round;stroke-miterlimit:4;stroke-dasharray:none;stroke-dashoffset:2.5;stroke-opacity:1"
           d="M 16.297121,616.89602 C 16.297121,616.89602 18.828081,630.00382 18.822511,637.21438 18.816971,644.39191 16.297121,657.80618 16.297121,657.80618 L 22.484621,657.80618 30.146731,657.80618 36.332281,657.80618 C 36.332281,657.80618 33.812431,644.39191 33.806891,637.21438 33.801321,630.00382 36.332281,616.89602 36.332281,616.89602 L 30.146731,616.89602 22.484621,616.89602 16.297121,616.89602 Z"
           id="path4613"
           inkscape:connector-curvature="0" />
        <path
           id="path4615"
           d="M 5.1018066,674.27298 A 21.213203,21.213203 0 0 0 26.314696,695.48587 21.213203,21.213203 0 0 0 47.527596,674.27298 21.213203,21.213203 0 0 0 26.314696,653.06009 21.213203,21.213203 0 0 0 5.1018066,674.27298 Z M 11.541266,674.27298 A 14.773481,14.773481 0 0 1 26.314696,659.49954 14.773481,14.773481 0 0 1 41.088136,674.27298 14.773481,14.773481 0 0 1 26.314696,689.04641 14.773481,14.773481 0 0 1 11.541266,674.27298 Z"
           style="opacity:1;fill:#ef677b;fill-opacity:1;stroke:none;stroke-width:3;stroke-linecap:round;stroke-linejoin:round;stroke-miterlimit:4;stroke-dasharray:none;stroke-dashoffset:2.5;stroke-opacity:1"
           inkscape:connector-curvature="0" />
        <path
           style="opacity:1;fill:#f492a2;fill-opacity:1;stroke:none;stroke-width:3;stroke-linecap:round;stroke-linejoin:round;stroke-miterlimit:4;stroke-dasharray:none;stroke-dashoffset:2.5;stroke-opacity:1"
           d="M 26.315677,656.84878 A 17.425131,17.425131 0 0 0 8.8898976,674.27456 17.425131,17.425131 0 0 0 26.315677,691.69839 17.425131,17.425131 0 0 0 43.739505,674.27456 17.425131,17.425131 0 0 0 26.315677,656.84878 Z M 26.315677,658.23745 A 16.036171,16.036171 0 0 1 42.350835,674.27456 16.036171,16.036171 0 0 1 26.315677,690.30972 16.036171,16.036171 0 0 1 10.278567,674.27456 16.036171,16.036171 0 0 1 26.315677,658.23745 Z"
           id="path4617"
           inkscape:connector-curvature="0" />
        <path
           style="opacity:1;fill:#717cb6;fill-opacity:1;stroke:none;stroke-width:3;stroke-linecap:round;stroke-linejoin:round;stroke-miterlimit:4;stroke-dasharray:none;stroke-dashoffset:2.5;stroke-opacity:1"
           d="M 16.297121,468.39138 C 16.297121,468.39138 18.828081,481.49918 18.822511,488.70974 18.816971,495.88727 16.297121,509.30154 16.297121,509.30154 L 22.484621,509.30154 30.146731,509.30154 36.332281,509.30154 C 36.332281,509.30154 33.812431,495.88727 33.806891,488.70974 33.801321,481.49918 36.332281,468.39138 36.332281,468.39138 L 30.146731,468.39138 22.484621,468.39138 16.297121,468.39138 Z"
           id="path4619"
           inkscape:connector-curvature="0" />
        <path
           inkscape:connector-curvature="0"
           id="path4621"
           d="M 16.297121,541.84026 C 16.297121,541.84026 18.828081,554.94806 18.822511,562.15862 18.816971,569.33615 16.297121,582.75042 16.297121,582.75042 L 22.484621,582.75042 30.146731,582.75042 36.332281,582.75042 C 36.332281,582.75042 33.812431,569.33615 33.806891,562.15862 33.801321,554.94806 36.332281,541.84026 36.332281,541.84026 L 30.146731,541.84026 22.484621,541.84026 16.297121,541.84026 Z"
           style="opacity:1;fill:#e77d1f;fill-opacity:1;stroke:none;stroke-width:3;stroke-linecap:round;stroke-linejoin:round;stroke-miterlimit:4;stroke-dasharray:none;stroke-dashoffset:2.5;stroke-opacity:1" />
        <path
           style="opacity:1;fill:#e77d1f;fill-opacity:1;stroke:none;stroke-width:3;stroke-linecap:round;stroke-linejoin:round;stroke-miterlimit:4;stroke-dasharray:none;stroke-dashoffset:2.5;stroke-opacity:1"
           d="M 5.1018066,525.22415 A 21.213203,21.213203 0 0 0 26.314696,546.43704 21.213203,21.213203 0 0 0 47.527596,525.22415 21.213203,21.213203 0 0 0 26.314696,504.01126 21.213203,21.213203 0 0 0 5.1018066,525.22415 Z M 11.541266,525.22415 A 14.773481,14.773481 0 0 1 26.314696,510.45071 14.773481,14.773481 0 0 1 41.088136,525.22415 14.773481,14.773481 0 0 1 26.314696,539.99759 14.773481,14.773481 0 0 1 11.541266,525.22415 Z"
           id="path4623"
           inkscape:connector-curvature="0" />
        <path
           inkscape:connector-curvature="0"
           id="path4625"
           d="M 26.315676,507.79934 A 17.425131,17.425131 0 0 0 8.8898966,525.22512 17.425131,17.425131 0 0 0 26.315676,542.64895 17.425131,17.425131 0 0 0 43.739506,525.22512 17.425131,17.425131 0 0 0 26.315676,507.79934 Z M 26.315676,509.18801 A 16.036171,16.036171 0 0 1 42.350836,525.22512 16.036171,16.036171 0 0 1 26.315676,541.26028 16.036171,16.036171 0 0 1 10.278566,525.22512 16.036171,16.036171 0 0 1 26.315676,509.18801 Z"
           style="opacity:1;fill:#f0a059;fill-opacity:1;stroke:none;stroke-width:3;stroke-linecap:round;stroke-linejoin:round;stroke-miterlimit:4;stroke-dasharray:none;stroke-dashoffset:2.5;stroke-opacity:1" />
        <path
           style="opacity:1;fill:#018a8a;fill-opacity:1;stroke:none;stroke-width:3;stroke-linecap:round;stroke-linejoin:round;stroke-miterlimit:4;stroke-dasharray:none;stroke-dashoffset:2.5;stroke-opacity:1"
           d="M 5.1018066,599.21829 A 21.213203,21.213203 0 0 0 26.314696,620.43118 21.213203,21.213203 0 0 0 47.527596,599.21829 21.213203,21.213203 0 0 0 26.314696,578.0054 21.213203,21.213203 0 0 0 5.1018066,599.21829 Z M 11.541266,599.21829 A 14.773481,14.773481 0 0 1 26.314696,584.44485 14.773481,14.773481 0 0 1 41.088136,599.21829 14.773481,14.773481 0 0 1 26.314696,613.99173 14.773481,14.773481 0 0 1 11.541266,599.21829 Z"
           id="path4627"
           inkscape:connector-curvature="0" />
        <path
           style="opacity:1;fill:#49b1b0;fill-opacity:1;stroke:none;stroke-width:3;stroke-linecap:round;stroke-linejoin:round;stroke-miterlimit:4;stroke-dasharray:none;stroke-dashoffset:2.5;stroke-opacity:1"
           d="M 26.315676,581.79302 A 17.425131,17.425131 0 0 0 8.8898966,599.2188 17.425131,17.425131 0 0 0 26.315676,616.64263 17.425131,17.425131 0 0 0 43.739506,599.2188 17.425131,17.425131 0 0 0 26.315676,581.79302 Z M 26.315676,583.18169 A 16.036171,16.036171 0 0 1 42.350836,599.2188 16.036171,16.036171 0 0 1 26.315676,615.25396 16.036171,16.036171 0 0 1 10.278566,599.2188 16.036171,16.036171 0 0 1 26.315676,583.18169 Z"
           id="path4629"
           inkscape:connector-curvature="0" />
        <path
           style="opacity:1;fill:#717cb6;fill-opacity:1;stroke:none;stroke-width:3;stroke-linecap:round;stroke-linejoin:round;stroke-miterlimit:4;stroke-dasharray:none;stroke-dashoffset:2.5;stroke-opacity:1"
           d="M 5.1018066,451.77493 A 21.213203,21.213203 0 0 0 26.314696,472.98782 21.213203,21.213203 0 0 0 47.527596,451.77493 21.213203,21.213203 0 0 0 26.314696,430.56204 21.213203,21.213203 0 0 0 5.1018066,451.77493 Z M 11.541266,451.77493 A 14.773481,14.773481 0 0 1 26.314696,437.00149 14.773481,14.773481 0 0 1 41.088136,451.77493 14.773481,14.773481 0 0 1 26.314696,466.54837 14.773481,14.773481 0 0 1 11.541266,451.77493 Z"
           id="path4633"
           inkscape:connector-curvature="0" />
        <path
           style="opacity:1;fill:#a1abdf;fill-opacity:1;stroke:none;stroke-width:3;stroke-linecap:round;stroke-linejoin:round;stroke-miterlimit:4;stroke-dasharray:none;stroke-dashoffset:2.5;stroke-opacity:1"
           d="M 26.315676,434.35047 A 17.425131,17.425131 0 0 0 8.8898966,451.77625 17.425131,17.425131 0 0 0 26.315676,469.20008 17.425131,17.425131 0 0 0 43.739506,451.77625 17.425131,17.425131 0 0 0 26.315676,434.35047 Z M 26.315676,435.73914 A 16.036171,16.036171 0 0 1 42.350836,451.77625 16.036171,16.036171 0 0 1 26.315676,467.81141 16.036171,16.036171 0 0 1 10.278566,451.77625 16.036171,16.036171 0 0 1 26.315676,435.73914 Z"
           id="path4635"
           inkscape:connector-curvature="0" />
        <text
           transform="matrix(0,-1,1,0,0,0)"
           sodipodi:linespacing="125%"
           id="text4641"
           y="31.686714"
           x="-681.87659"
           style="font-style:normal;font-weight:normal;font-size:14.75772476px;line-height:125%;font-family:sans-serif;letter-spacing:0px;word-spacing:0px;fill:#000000;fill-opacity:1;stroke:none;stroke-width:1px;stroke-linecap:butt;stroke-linejoin:miter;stroke-opacity:1"
           xml:space="preserve"><tspan
             y="31.686714"
             x="-681.87659"
             id="tspan4643"
             sodipodi:role="line">t3</tspan></text>
        <text
           xml:space="preserve"
           style="font-style:normal;font-weight:normal;font-size:14.75772476px;line-height:125%;font-family:sans-serif;letter-spacing:0px;word-spacing:0px;fill:#000000;fill-opacity:1;stroke:none;stroke-width:1px;stroke-linecap:butt;stroke-linejoin:miter;stroke-opacity:1"
           x="-606.24139"
           y="31.791201"
           id="text4645"
           sodipodi:linespacing="125%"
           transform="matrix(0,-1,1,0,0,0)"><tspan
             sodipodi:role="line"
             id="tspan4647"
             x="-606.24139"
             y="31.791201">t2</tspan></text>
        <text
           xml:space="preserve"
           style="font-style:normal;font-weight:normal;font-size:14.75772476px;line-height:125%;font-family:sans-serif;letter-spacing:0px;word-spacing:0px;fill:#000000;fill-opacity:1;stroke:none;stroke-width:1px;stroke-linecap:butt;stroke-linejoin:miter;stroke-opacity:1"
           x="-532.03589"
           y="31.69392"
           id="text4653"
           sodipodi:linespacing="125%"
           transform="matrix(0,-1,1,0,0,0)"><tspan
             sodipodi:role="line"
             id="tspan4655"
             x="-532.03589"
             y="31.69392">t1</tspan></text>
        <text
           transform="matrix(0,-1,1,0,0,0)"
           sodipodi:linespacing="125%"
           id="text4657"
           y="31.686714"
           x="-458.88538"
           style="font-style:normal;font-weight:normal;font-size:14.75772476px;line-height:125%;font-family:sans-serif;letter-spacing:0px;word-spacing:0px;fill:#000000;fill-opacity:1;stroke:none;stroke-width:1px;stroke-linecap:butt;stroke-linejoin:miter;stroke-opacity:1"
           xml:space="preserve"><tspan
             y="31.686714"
             x="-458.88538"
             id="tspan4659"
             sodipodi:role="line">t0</tspan></text>
      </g>
      <g
         transform="matrix(1,0,0,-1,-456.83122,1392.16)"
         id="g4667">
        <path
           transform="matrix(0,1,-1,0,815.6079,540.57732)"
           style="display:inline;opacity:1;fill:none;fill-rule:evenodd;stroke:#000000;stroke-width:2.1838181;stroke-linecap:butt;stroke-linejoin:miter;stroke-miterlimit:4;stroke-dasharray:none;stroke-opacity:1"
           d="M 72.423336,746.2095 C 72.423336,746.2095 46.896651,718.55744 46.896651,690.92165 46.89665,663.28584 65.137802,633.57017 65.137802,633.57017"
           id="path4669"
           inkscape:connector-curvature="0"
           sodipodi:nodetypes="csc" />
        <path
           inkscape:connector-curvature="0"
           id="path4671"
           d="M 187.94171,610.47841 183.53542,596.52439 173.39828,608.8539 187.94171,610.47841 Z"
           style="opacity:1;fill:#000000;fill-opacity:1;stroke:none;stroke-width:3;stroke-linecap:round;stroke-linejoin:round;stroke-miterlimit:4;stroke-dasharray:none;stroke-dashoffset:2.5;stroke-opacity:0.2"
           inkscape:transform-center-x="0.8924763"
           inkscape:transform-center-y="1.1393104" />
      </g>
    </g>
  </g>
</svg>
